# xmcd CD database file
#
# Track frame offsets:
#	150
#	25787
#	57667
#
# Disc length: 1224 seconds
#
# Revision: 0
# Processed by: cddbd v1.5.2PL0 Copyright (c) Steve Scherf et al.
# Submitted via: CDex 1.51
#
DISCID=2104c603
DTITLE=Ascorbin Acid - C6 H8 O6
DYEAR=1994
DGENRE=Acid Techno
TTITLE0=Sweet Liberty
TTITLE1=Mirror Image
TTITLE2=Last Sunset
EXTD=YEAR: 1994
EXTT0=
EXTT1=
EXTT2=
PLAYORDER=
